<svg width="247" height="264" viewBox="0 0 247 264" fill="none" xmlns="http://www.w3.org/2000/svg">
<path d="M25.8979 0.937571L25.7799 14.738L19.9246 0L10.8542 3.47822L16.7094 18.2169L7.10711 8.14275L0 14.683L23.0284 39.1729L35.4157 33.7914L35.6354 1.0171L25.8979 0.937571Z" fill="#BFE2DA"/>
<path d="M75.5777 153.251C73.0865 154.206 70.3239 154.222 67.8209 153.297C65.318 152.373 63.2513 150.571 62.0183 148.24L14.5483 58.3991C13.1334 55.7224 12.3077 52.7831 12.1249 49.7722C11.9422 46.7614 12.4065 43.7464 13.4876 40.9235C14.5688 38.1005 16.2426 35.5327 18.4002 33.3871C20.5578 31.2415 23.1508 29.566 26.0108 28.4698C28.8708 27.3735 31.9335 26.8809 35 27.024C38.0665 27.1672 41.0679 27.9428 43.8092 29.3005C46.5505 30.6583 48.9702 32.5677 50.9111 34.9046C52.8519 37.2416 54.2704 39.9537 55.0743 42.8646L55.123 43.038L57.6913 52.324L60.2534 61.5862L62.8217 70.8722L65.3899 80.1522L67.9582 89.4383L70.5142 98.6764L73.0825 107.968L75.7116 117.464L78.2798 126.738L82.0957 140.538C82.7949 143.074 82.5163 145.774 81.3133 148.12C80.1104 150.466 78.0678 152.293 75.5777 153.251Z" fill="#FDCD79"/>
<path d="M57.6907 52.3237L38.3984 59.6724C37.1951 60.1331 35.8548 60.1052 34.6724 59.595C33.49 59.0848 32.5623 58.134 32.0934 56.9518C31.6245 55.7695 31.6529 54.4527 32.1722 53.291C32.6915 52.1292 33.6592 51.2178 34.8625 50.7571L55.1224 43.0377L57.6907 52.3237Z" fill="#FF7070"/>
<path d="M62.8225 70.8722L45.4837 77.4974C44.2804 77.9589 42.9398 77.9318 41.7568 77.4221C40.5738 76.9125 39.6454 75.962 39.1757 74.7797C38.706 73.5975 38.7335 72.2804 39.2522 71.1181C39.771 69.9558 40.7384 69.0435 41.9417 68.5821L60.2542 61.5862L62.8225 70.8722Z" fill="#FF7070"/>
<path d="M67.96 89.4375L52.5627 95.3212C51.9668 95.5493 51.3311 95.6599 50.6918 95.6466C50.0525 95.6334 49.4221 95.4965 48.8367 95.2439C48.2512 94.9912 47.7221 94.6278 47.2796 94.1743C46.8371 93.7207 46.4898 93.186 46.2576 92.6006C46.0255 92.0152 45.9129 91.3906 45.9264 90.7625C45.94 90.1344 46.0792 89.515 46.3364 88.9398C46.5935 88.3646 46.9634 87.8447 47.4251 87.41C47.8867 86.9752 48.4309 86.634 49.0267 86.4059L65.3918 80.1515L67.96 89.4375Z" fill="#FF7070"/>
<path d="M73.0772 107.966L59.6395 113.144C58.4362 113.606 57.0956 113.579 55.9126 113.069C54.7296 112.559 53.8012 111.609 53.3315 110.427C52.8618 109.244 52.8893 107.927 53.4081 106.765C53.9268 105.603 54.8942 104.69 56.0975 104.229L70.5089 98.6741L73.0772 107.966Z" fill="#FF7070"/>
<path d="M78.2809 126.735L66.7238 130.969C65.5205 131.429 64.1802 131.402 62.9978 130.891C61.8154 130.381 60.8877 129.43 60.4188 128.248C59.9499 127.066 59.9782 125.749 60.4975 124.587C61.0168 123.426 61.9846 122.514 63.1879 122.053L75.7127 117.461L78.2809 126.735Z" fill="#FF7070"/>
<path d="M132.879 65.4514C130.87 64.1092 129.304 62.2202 128.372 60.0163C127.44 57.8123 127.183 55.389 127.632 53.0435C128.18 50.3597 128.177 47.5954 127.623 44.9128C127.069 42.2302 125.976 39.6833 124.407 37.4214C122.838 35.1595 120.825 33.2281 118.486 31.7406C116.147 30.2531 113.53 29.2393 110.787 28.7588C108.477 28.3804 106.317 27.3832 104.547 25.8768C102.776 24.3704 101.462 22.4133 100.751 20.2208C100.411 19.1367 99.9821 18.0816 99.468 17.066C97.0508 12.3087 92.8518 8.65635 87.7524 6.87563C82.6531 5.09492 77.0499 5.32432 72.119 7.51567C67.1881 9.70703 63.313 13.6899 61.307 18.6284C59.301 23.5668 59.3202 29.0767 61.3605 34.0015C61.604 34.5883 61.8709 35.1577 62.1614 35.7098C64.3639 39.8954 63.7164 44.9133 60.9522 48.7623C59.3503 50.9892 58.2153 53.5069 57.6133 56.1689C57.0112 58.8308 56.9542 61.5839 57.4454 64.2677C57.9366 66.9516 58.9663 69.5126 60.4745 71.8018C61.9827 74.0909 63.9393 76.0624 66.2305 77.6015C68.2193 78.9719 69.7579 80.8826 70.6578 83.0994C71.5576 85.3162 71.7795 87.7428 71.2964 90.0818C70.2988 95.1819 71.3029 100.464 74.1069 104.866C76.9109 109.269 81.307 112.466 86.4116 113.814C91.5163 115.163 96.9512 114.563 101.624 112.135C106.297 109.708 109.862 105.633 111.602 100.729C116.333 103.044 121.781 103.514 126.851 102.044C131.921 100.575 136.237 97.2746 138.931 92.8069C141.626 88.3392 142.5 83.035 141.377 77.9602C140.255 72.8854 137.219 68.4161 132.88 65.4502L132.879 65.4514Z" fill="#2A9F85"/>
<path d="M128.647 129.18L111.876 88.7038L121.005 75.4864L112.948 70.1145L107.464 78.0539L100.041 60.139L109.17 46.9215L101.112 41.5496L95.6283 49.4891L87.223 29.2028L78.2049 32.8095L86.6102 53.0959L77.0419 51.1765L75.0938 60.5504L91.0231 63.7458L98.4455 81.6613L88.8766 79.7413L86.9285 89.1152L102.858 92.3106L119.628 132.786L128.647 129.18Z" fill="#55B29D"/>
<path d="M180.322 81.874C178.976 79.8867 178.25 77.557 178.233 75.1704C178.216 72.7838 178.908 70.4441 180.224 68.4382C181.761 66.1554 182.819 63.5939 183.335 60.904C183.852 58.2141 183.816 55.4501 183.231 52.7739C182.646 50.0977 181.522 47.5633 179.927 45.3193C178.331 43.0753 176.296 41.1669 173.94 39.706C171.945 38.4995 170.328 36.7759 169.266 34.7248C168.204 32.6737 167.739 30.3745 167.921 28.0802C168.022 26.9502 168.029 25.814 167.943 24.6827C167.531 19.3806 165.044 14.4416 161.004 10.9027C156.964 7.36381 151.686 5.50026 146.278 5.7033C140.869 5.90634 135.751 8.16016 131.998 11.9916C128.245 15.823 126.148 20.9341 126.149 26.2517C126.149 26.8848 126.178 27.511 126.235 28.1305C126.67 32.8219 124.144 37.2311 120.106 39.7718C117.768 41.241 115.751 43.1525 114.172 45.395C112.592 47.6376 111.483 50.1663 110.908 52.834C110.333 55.5018 110.304 58.2553 110.822 60.9342C111.341 63.6131 112.396 66.164 113.928 68.4382C115.244 70.4441 115.936 72.7838 115.919 75.1704C115.902 77.557 115.176 79.8867 113.83 81.874C110.949 86.2282 109.852 91.4924 110.76 96.6088C111.668 101.725 114.512 106.314 118.723 109.454C122.934 112.594 128.198 114.052 133.457 113.535C138.717 113.017 143.582 110.563 147.076 106.666C150.57 110.561 155.435 113.013 160.694 113.529C165.952 114.045 171.215 112.587 175.424 109.448C179.634 106.309 182.478 101.721 183.387 96.6064C184.295 91.4915 183.2 86.2283 180.322 81.874Z" fill="#55B29D"/>
<path d="M160.071 78.8104L151.945 84.1326V64.7899L165.472 55.9296L160.071 47.9692L151.945 53.292V31.3889H142.207V53.292L134.082 47.9692L128.681 55.9296L142.207 64.7899V84.1326L134.082 78.8104L128.681 86.7707L142.207 95.6304V139.332H151.945V95.6304L165.472 86.7707L160.071 78.8104Z" fill="#BFE2DA"/>
<path d="M212.909 139.627L154.484 120.493L186.654 25.6715C188.628 19.8524 192.416 14.7912 197.481 11.2047C202.545 7.6182 208.63 5.68827 214.873 5.68829H217.081C223.835 5.68824 230.388 7.94671 235.663 12.0922C240.414 15.8266 243.885 20.9027 245.608 26.6358C247.331 32.3689 247.224 38.4833 245.3 44.1544L212.909 139.627Z" fill="#FCAC1F"/>
<path d="M197.387 39.3186L226.588 34.5467L228.185 43.9798L198.984 48.7517L197.387 39.3186Z" fill="#FDCD79"/>
<path d="M187.651 68.0009L216.852 63.229L218.449 72.6621L189.248 77.434L187.651 68.0009Z" fill="#FDCD79"/>
<path d="M173.958 91.7924V263.999H27.8959V91.7924L42.5021 101.359L57.1083 91.7924L71.7144 101.359L86.3206 91.7924L100.927 101.359L115.533 91.7924L130.139 101.359L144.745 91.7924L159.351 101.359L173.958 91.7924Z" fill="#FCAC1F"/>
<path d="M173.958 131.422V263.997H27.8959V234.979C81.531 217.31 134.661 185.045 173.958 131.422Z" fill="#FCAC1F"/>
<path d="M232.381 91.7924V263.999H173.956V91.7924L188.563 101.359L198.3 94.9795L203.169 91.7924L208.037 94.9795L217.775 101.359L232.381 91.7924Z" fill="#FDCD79"/>
<path d="M232.381 257.231V263.999H225.492L203.169 242.061L180.846 263.999H173.956V257.231L198.3 233.319V94.9795L203.169 91.7924L208.037 94.9795V233.319L232.381 257.231Z" fill="#FCAC1F"/>
</svg>
